<?xml version="1.0" encoding="UTF-8"?>
<svg version="1.1" xmlns="http://www.w3.org/2000/svg" width="1024" height="1024">
<!-- <path d="M0 0 C337.92 0 675.84 0 1024 0 C1024 337.92 1024 675.84 1024 1024 C686.08 1024 348.16 1024 0 1024 C0 686.08 0 348.16 0 0 Z " fill="#141414" transform="translate(0,0)"/> -->
<path d="M0 0 C50.62956721 -0.20151517 50.62956721 -0.20151517 72.08203125 -0.24414062 C86.81014862 -0.27364263 101.53812151 -0.30804564 116.26611328 -0.37719727 C126.99933766 -0.42756775 137.7324432 -0.45941568 148.46578252 -0.47044247 C154.13117369 -0.47687202 159.79622534 -0.49160663 165.46150589 -0.52865028 C210.3699741 -0.81074229 263.70236275 -1.06604303 301 28 C301.96035156 28.7425 302.92070313 29.485 303.91015625 30.25 C306.66234313 32.44285954 309.34458047 34.69130723 312 37 C312.93585938 37.80824219 312.93585938 37.80824219 313.890625 38.6328125 C336.8175043 59.95266755 347.87958516 93.82599504 349.13867188 124.36328125 C350.23852632 165.20885617 343.65805167 204.97823212 314.73510742 235.66601562 C297.94346442 252.86896141 277.02638607 262.08983219 254 268 C253.26974609 268.19432617 252.53949219 268.38865234 251.78710938 268.58886719 C220.71193839 276.6899013 187.75813536 275.42271073 155.93678093 275.30418181 C149.94049013 275.28513743 143.94419235 275.28364312 137.94787598 275.28010559 C126.6476637 275.2708652 115.34754086 275.24636258 104.04736757 275.21605712 C91.15933802 275.18226031 78.27130369 275.16596424 65.3832407 275.15097082 C38.92211132 275.11980368 12.46106072 275.06720303 -14 275 C-13.99723462 275.89821598 -13.99446924 276.79643196 -13.99162006 277.72186661 C-13.92540936 299.56264085 -13.87574336 321.40339783 -13.84456348 343.24425125 C-13.82908493 353.80626272 -13.80797651 364.36820726 -13.77368164 374.93017578 C-13.74380956 384.13441059 -13.72443219 393.33859693 -13.71773452 402.54287887 C-13.71381854 407.41791135 -13.70459494 412.29280517 -13.68280983 417.16779327 C-13.66247929 421.75435284 -13.65615924 426.34071632 -13.66067696 430.92731667 C-13.65985022 432.61238228 -13.65386413 434.2974543 -13.64238358 435.982481 C-13.6274929 438.2803314 -13.63103347 440.57743814 -13.63923645 442.87530518 C-13.63647107 444.16212818 -13.63370569 445.44895119 -13.63085651 446.77476883 C-14.02552626 450.22302467 -14.45468638 451.66501123 -17 454 C-18.8756485 454.50057125 -18.8756485 454.50057125 -21.02307129 454.50120544 C-21.83903275 454.51103958 -22.6549942 454.52087372 -23.49568176 454.53100586 C-24.38720444 454.52133789 -25.27872711 454.51166992 -26.19726562 454.50170898 C-27.60983894 454.50981346 -27.60983894 454.50981346 -29.0509491 454.51808167 C-32.16970058 454.53060836 -35.28753602 454.51405151 -38.40625 454.49609375 C-40.56953988 454.49624865 -42.73283005 454.49773606 -44.89611816 454.50050354 C-49.43233491 454.5018893 -53.96823615 454.48929962 -58.50439453 454.46655273 C-64.32554285 454.43816781 -70.1461667 454.44090317 -75.96735382 454.45364285 C-80.43512468 454.46059039 -84.90277385 454.45282129 -89.37052917 454.44038582 C-91.51718174 454.43586233 -93.66384733 454.43554232 -95.8105011 454.43945122 C-98.80818565 454.44235434 -101.80514175 454.42589928 -104.80273438 454.40405273 C-105.69425705 454.40855438 -106.58577972 454.41305603 -107.50431824 454.41769409 C-108.32027969 454.40778946 -109.13624115 454.39788483 -109.97692871 454.38768005 C-110.68557823 454.38525016 -111.39422775 454.38282026 -112.1243515 454.38031673 C-114.63045939 453.87216461 -115.41478676 452.98776397 -117 451 C-117.37259549 448.89615661 -117.37259549 448.89615661 -117.36914349 446.41416645 C-117.37511663 445.4676765 -117.38108978 444.52118655 -117.38724393 443.54601508 C-117.3785054 442.50419757 -117.36976688 441.46238005 -117.36076355 440.38899231 C-117.36332682 439.2838699 -117.3658901 438.17874749 -117.36853105 437.04013652 C-117.37349265 433.31803418 -117.35693649 429.59633287 -117.34057617 425.87426758 C-117.33973041 423.21375104 -117.34007177 420.55325946 -117.34190369 417.89274597 C-117.34347818 412.15509157 -117.33405065 406.41753936 -117.31719017 400.67991066 C-117.29282852 392.38423852 -117.28499781 384.08861589 -117.2812262 375.79291185 C-117.27465725 362.33432531 -117.25468409 348.87579327 -117.22631836 335.41723633 C-117.19878924 322.34204379 -117.17755005 309.26686605 -117.16479492 296.19165039 C-117.16400675 295.38594976 -117.16321858 294.58024912 -117.16240653 293.75013331 C-117.15849147 289.70824607 -117.15470033 285.66635872 -117.15097082 281.62447131 C-117.11986112 248.08294135 -117.06701329 214.54147735 -117 181 C-116.03698758 180.99796521 -116.03698758 180.99796521 -115.05452037 180.99588931 C-76.93343235 180.91509312 -38.81238128 180.82407927 -0.69134961 180.71994839 C3.89440605 180.70743077 8.48016194 180.6949978 13.06591797 180.68261719 C13.9787905 180.68015119 14.89166302 180.6776852 15.83219835 180.67514448 C30.57852384 180.63551088 45.3248569 180.60272214 60.07120433 180.57250018 C75.22252979 180.54129448 90.37382334 180.50264673 105.52511287 180.45720994 C114.86072996 180.42944458 124.19632393 180.40736029 133.53197101 180.39273749 C139.94937312 180.38212738 146.36673027 180.36423447 152.78409836 180.34083296 C156.4766244 180.32757611 160.16908793 180.31732006 163.86163902 180.31578636 C200.44401324 181.86687426 200.44401324 181.86687426 233.0390625 168.21484375 C243.192036 157.3490019 243.54203674 144.92421872 243.34375 130.78125 C242.99496194 121.79414431 240.31858676 113.09338993 233.91015625 106.48828125 C222.24863144 97.40230794 206.9383681 94.86028701 192.52748108 94.84178162 C191.70070608 94.83684364 190.87393108 94.83190566 190.0221023 94.82681805 C187.26612024 94.81152352 184.51016134 94.80310436 181.75415039 94.79467773 C179.77284544 94.78509288 177.79154252 94.77508244 175.8102417 94.76467896 C170.44100569 94.73768967 165.07176095 94.7166478 159.70249486 94.69667697 C154.08773416 94.67478049 148.47300021 94.64740974 142.85826111 94.62062073 C132.23017709 94.57074332 121.60207819 94.52578614 110.97396511 94.48259836 C96.60920397 94.42394205 82.24447804 94.3576818 67.87974834 94.29184818 C45.2531893 94.18835097 22.62659996 94.09501029 0 94 C0 62.98 0 31.96 0 0 Z " fill="#FCFBFC" transform="translate(405,283)"/>
<path d="M0 0 C11.47594367 -0.71240676 23.61008736 3.87937098 32.25390625 11.41796875 C32.8984375 12.04574219 33.54296875 12.67351562 34.20703125 13.3203125 C34.9134375 13.99964844 35.61984375 14.67898438 36.34765625 15.37890625 C46.59120907 26.02081946 48.72181715 37.54089637 48.48046875 51.73046875 C47.94472544 64.65461298 41.47496426 74.5272166 32.26953125 83.1953125 C22.85188814 91.2271763 11.28385343 95.08727965 -1.203125 94.6015625 C-15.07293029 93.0953393 -25.92420436 88.2761703 -35.5625 78.1015625 C-45.21477881 66.06579628 -47.10923327 52.21270845 -45.79296875 37.3203125 C-43.57400315 25.7198974 -35.40929366 14.98674225 -25.79296875 8.3203125 C-17.3356742 3.1961172 -9.69807338 1.1122266 0 0 Z " fill="#9DD43C" transform="translate(319.79296875,282.6796875)"/>
<path d="M0 0 C0.66 0.33 1.32 0.66 2 1 C-5.11389522 8.66742597 -5.11389522 8.66742597 -10 10 C-3.84965831 2.51708428 -3.84965831 2.51708428 0 0 Z " fill="#98CA40" transform="translate(294,291)"/>
</svg>
